<?xml version="1.0" encoding="UTF-8"?>
<svg id="Layer_1" data-name="Layer 1" xmlns="http://www.w3.org/2000/svg" viewBox="0 0 143.56 143.56">
  <rect x="3.4" y="3.4" width="136.75" height="136.75" rx="13.17" ry="13.17" transform="translate(-3.57 3.76) rotate(-2.93)" style="fill: #fff8e9;"/>
  <g>
    <path d="M55.27,52.02l.13.13c-.13,0-.13.26-.13.26-.26.39.13.52-.26.77v-.13c-.13.13-.39.13-.13.26,0,.26.39,0,.52.39-.13,0-.13.39-.13.39,0,.65,0,1.03-.26,1.55.26,0,.26.26.26.39,0,.39-.26.77,0,1.29h-.26c.26.64.39,1.16,0,1.81.26,0,0,.13.26.13,0,.26.13.77,0,.77-.26.13,0,.39-.26.64h.26c0,.39-.39.39-.39.52.13.26.39.26.52.26-.13.13-.13.52-.26.52,0,.13.13.13.13.26l-.26.13c0,.39.26.52.26.77v.9c-.26.39,0,.77-.26,1.29l.26.26c-.39.26.13.64-.26,1.03.26,0,0,.13.26.13-.39.39,0,.77-.26,1.29.13.13,0,.26.26.39q-.26,0-.39.39c.39,0,.13.39.39.39l-.26.26c-.13.39.26.52.26.77,0,.52-.26.9-.26,1.29l.26.26c-.26.39.39.9-.26,1.42q.26,0,.26.26c0,.39.13.52-.26.77.26.13.26.39.26.52v.26c0,.13,0,.39.13.52,0,.39-.39.77-.13.9,0,0,0,.26-.26.26q.26,0,.26.13v.13c0,.39.13.52,0,.77.13.52-.26,1.29-.26,1.81l.39.39c-.39.26-.13.65-.13.77,0,.26-.13.26-.26.26.26.13.26.26.26.26-.26.39,0,.65,0,.77-.26,1.29.39,2.58-.26,3.74.39.39.26.9,0,1.29q.26,0,.26.13s-.26,0-.26.26c0,.39.13.52,0,.52.13,0,.26.13.26.13v1.29c0,1.16,0,2.58-.26,3.74,0,.26.39.52,0,.64.26.26.26.39.26.9,0,0-.26,0-.26.26,0,.13.26.39,0,.52q.26,0,.26.26c-.39.13,0,.52-.26.77q.26,0,.26.13c0,.26,0,.52-.26.77h-.13v.13c.13,0,.39-.13.39,0-.26.77,0,1.55,0,2.32,0,.26-.65,0-.39.26h.13c0,.13.26.39.26.52-.26.65,0,1.16,0,1.93l-.26.13c.26.26.26.39.26.39,0,.39.13.77,0,1.03-.26.39,0,.52-.26.9-.13.26,0,.39,0,.65,0,0,0,.39-.26.39.13.13.26.26.26.39-.13.77-.39,1.42-.52,2.06-.26.39-.26.77-.39,1.16q0,.13-.26.13v.26c-.26.26-.39.39-.52.39.39.13-.13.39-.39.77,0,.13.26.13.26.13-.26.39-.39.64-.65.64v.13s-.13.39-.52.26q.13.13.13.39c-.13.26-.39.52-.52.64v.26c0,.13-.26.39-.39.52-.77.39-1.29,1.03-1.94,1.55h-.13c-.77.26-1.29.77-2.19,1.03-.65.26-1.03.64-1.68.64,0,0-.26.13-.39.13h-.26c-.13.26-.39.26-.77.26-.39-.26-.77.52-1.29.13,0-.13.39-.13,0-.39v.26q-.13,0-.13-.13-.13.13-.26.13h-.13l-.26.13c-.13,0-.52.39-.77-.13q0,.13.26.52h-.39v.13c-.65-.13-.77,0-1.55-.13,0-.39-.13-.52-.52-.52q.13.13.39.13,0,.39-.26.39c-.39,0-.39-.39-.52-.39,0,0,0,.39-.26.39-.13,0-.39,0-.39-.39,0,0,0-.13.26-.13-.26,0-.65,0-.9.13-.26,0-.26-.13-.13-.13-.65,0-1.03.39-1.42-.26,0,.26-.39.26-.39.26-.9-.39-1.55-.65-2.32-.77-.13,0-.39-.52-.52-.52-1.03-.13-1.68-.77-2.19-1.16-.65-.39-1.29-.9-1.68-1.55-.39-.13-.65-.39-.77-1.03h.13c0-.39-.52-.26-.77-.65-.13-.52-.9-.9-.9-1.68,0,0-.13,0-.13-.26-.26-.52-.65-1.16-.65-1.93-.13-.52-.39-1.29-.39-2.06l-.13-.13c0-.64-.39-1.29.13-1.55h-.13c-.26,0-.39,0-.39-.26l.39-.39c-.26,0-.39-.13-.39-.13,0-.64,0-1.16.13-1.68,0-.26-.13-.64-.13-.77,0-.26,0-.39.13-.65.26-.39-.13-.9-.13-1.42v-1.29s0-.13.26-.13q-.13,0-.13-.26c0-.13-.13-.39,0-.65h-.13c.13-.77,0-1.55,0-2.32.13-.39,0-.52.13-.52-.39-.52,0-1.29,0-2.06,0,0-.13-.52,0-.52-.39-.39,0-.9-.13-1.55,0,0,.13-.13.13-.39h-.13c.39-.64,0-1.29.13-1.55,0-.13-.13-.52-.13-.77.13-.13,0-.39.13-.39-.13-.52-.13-1.03,0-1.29h-.13c0-.39.13-.52.39-.77,0-.39-.39-.39-.39-.39.13-.52,0-1.29.13-1.81,0-.26-.13-.52,0-.64v-.26s-.13,0-.13-.13v-2.06c0-.13.13-.26.26-.26,0,0-.13,0-.13-.13-.13-.26-.13-.77.26-.77-.39-.13,0-.52-.39-.77,0,0,0-.13.13-.39h-.13c0-.13,0-.26.13-.26,0-.39-.39-.9,0-1.42-.13,0-.13-.26-.13-.26.13-.13.13-.39.39-.52h-.39c0-.39.13-1.03,0-1.16,0-.52-.26-1.16.39-1.68,0-.26-.65-.39-.39-.64,0-.26.13.13.13,0-.13-.26-.13-.39-.13-.39.13-.52.39-.77.13-1.16,0,0-.13,0-.13-.13l.13-.26c-.13-.13-.13-.39-.13-.52,0-.26.13-.26.13-.26.26-.13-.13-.39-.13-.39,0-1.29-.26-2.32.13-3.35,0-.26-.13-.26-.13-.39-.26,0,0-.26,0-.26l.13.26c-.13-.77-.13-1.42-.13-2.06,0-.26.13-.39.39-.39,0-.26-.39-.26-.39-.26.13-.39,0-.77.13-1.16l-.13-.13q0-.13.13-.13-.13,0-.13-.13c0-.52.13-.77,0-.9-.26-.64,0-1.42,0-2.32,0-.13.13-.13.13-.13,0-.26-.13-.39-.13-.39.13-.39.13-.77,0-1.16-.26-.26.13,0,.13-.26h-.13c0-.52.13-.9,0-1.55,0,0,.13-.13.39-.13q0-.26-.26-.26c.26,0,.26-.13.26-.13-.26,0-.39-.26-.39-.26,0-.13.13-.13.13-.13,0-.39-.13-.77,0-.9,0-.26-.13-.39-.13-.64,0-.39,0-.9.13-1.55l.26.26c-.39-.64.52-.77.13-1.16,0-.26-.39.13-.52-.26,0-.13.39-.13.13-.39-.13-.13,0-.13,0-.13v-.26c-.13-.39-.13-.52.26-.9,0-.13-.39,0-.39-.13-.26-.77,0-1.42,0-2.19,0-.13.39,0,.39-.13v-.39s-.26,0-.26-.26c0-.13-.13-.39,0-.77.26-.13,0-.39.26-.52,0-.26.13-.39,0-.65.13,0,0-.26.13-.26h.13c-.13,0-.13-.26-.13-.39,0-.26.39-.39.65-.39-.26-.26-.39-.39-.26-.64,0-.52.26-.9.39-1.42,0-.26.26-.26.39-.26,0-.26,0-.39.39-.65,0-.39.39-.77.77-1.16,0-.13.13-.52,0-.52.52-.39,1.16-.9,1.81-1.55q0-.13-.26-.13c.26-.39.64-.65,1.03-.65v-.26c.39-.39.77-.39,1.16-.64,0-.26.39-.39.77-.39.13-.26.39-.39.77-.26q0-.13.13-.13t.13.13c.39-.39.77-.77,1.42-.52.13,0,.13-.26.13-.26.39,0,.52-.13.77,0,.13-.52.77-.13,1.16-.13v.13l.39-.52q.13,0,.13.39c.52-.39,1.16-.52,1.55-.77.13-.13.39.26.52,0,.26,0,.26.26.26.26.13-.26.52,0,.9,0q.13,0,.13.13l-.13.39c.39-.39.52-1.16,1.16-.52v.13h.13v.39s.26,0,.39-.39q.26,0,.26.39c.39-.52,1.03,0,1.42-.39.13,0,.26.13.26.26,0-.13.13.13.13-.26.13.39.26.39.13.52.26-.13.52-.13.64,0,.26-.13.39-.13.39,0h.26c.26.39.52.26.9.39.52,0,.77.39,1.16.77q.13,0,.52-.13c.13.39.9.13,1.03.39.26.26,0,.39-.13.9q.13,0,.39-.26c.13,0,0,.52,0,.52.39-.52.77-.52.9,0v.13s.26,0,.26.26h-.26q0,.13.26.13v-.39q.13,0,.13.26.26,0,.26-.26c.13.64.65.77,1.03,1.16,0,0,0,.26-.13.26.13.13.39.39.39.9.13-.39.39-.39.39,0-.26.13,0,.13,0,.39,0-.26.39,0,.39,0-.26.13-.26.39-.39.52.39-.13.52-.13.77.26.13.13,0,.13-.26.39.26,0,.39.13.39.13q.13.26,0,.26.26,0,.26.26c0,.13-.39.13-.65.52-.13,0-.13-.13-.13-.26-.13.26-.65.26-.39.39.13.26.13-.13.39-.13.13.13.39,0,.52,0,.26.13.52.39.26.52,0,0,.26.26.52.26.13.13.13.77,0,.9,0,.26-.26.39,0,.39.39,0,.52-.13.52.26.39,1.03.65,2.19.26,3.22,0,0,.13,0,.39.13v2.71c0,.13.13.52,0,.77-.26,0,0,.13,0,.39,0,0-.26.13-.26.39.39.52.26,1.16.26,1.68,0,0-.26,0-.26.26.26.13.26.39.39.52-.13,0-.13.39-.13.77ZM28.7,77.56v-.13h-.26v.13h.26ZM29.21,82.33h.13q.39,0,.39-.13v-.26q-.39,0-.52.26v.13ZM29.86,104.52c0-.39,0-.64-.13-.9q-.39,0-.39.26c-.13.52.52.64.39,1.03v1.29c0,.26.39.26.39,0,.39-.64-.26-1.16-.26-1.68ZM33.21,69.43c.13-.39-.52-.9-1.03-.77,0,0-.39,0,0,.52-.26.26,0,.65.26.65.26.26.77,0,.77-.39ZM33.34,101.55c-.13-.39-.52,0-.52.13s.39.39.52.39c0,0,.65-.39,0-.52ZM35.15,51.63h-.26c-.39,0-1.03.26-1.03.39.13.39,1.03,0,1.29-.39ZM35.4,73.56c.13-.26-.26-.26-.26-.26v.26h.26ZM43.02,55.89s0-.26-.39-.26c.39-.13,0-.13-.13-.39q.13,0,.52-.13c0-.26-.26-.26-.39-.39v-.65h-.39c.39-.13.39-.39.77-.52-.39,0-.77-.39-.77-.65,0-.39.26-.52.26-.9,0,0,.13,0,.13.13,0,0,.39-.13,0-.13,0-.39-.13-.52-.39-.39,0,0,0-.13.26-.13h.13c.39,0,0-.26.39-.39,0,0-.39-.26-.52-.26.13-.52-.26-.9.13-1.29l.39-.26c-.39-.39-.39-.52-.77-.9h.26l-.26-.26c-.13-1.16-.13-2.58-1.16-2.97-.52-.39-1.42-.65-2.19-.26-.65.39-1.16,1.16-1.16,2.06,0,.39-.26.65-.52.65.26.13.26.39.26.39q-.26,0-.26.13h.26c0,.39-.52.65-.52.77.52.39-.13.77-.39,1.16-.13.26.65,0,0,.26.26.13.39.13.39.13.26.64.26,1.03.26,1.68,0,.26-.26.26-.26.39,0,0,.26.26.26.39v2.32q-.26,0-.26.26,0,.13.26.39s0,.13-.26.13c.26,0,.26.26.26.26-.26.39,0,1.03,0,1.42-.26.64-.26,1.42,0,1.93,0,.39,0,.52-.26.52q0,.13.26.13c0,.39-.65.39-.39.77,0,.13.13.13.13.13l.26-.13v2.84c0,.77,0,1.81-.26,2.45,0,.26.26.26.26.26.26.39,0,.77,0,1.29.26.13,0,.39,0,.77v1.29c0,.26.26.26.26.26-.52.9-.26,1.55-.26,2.06v1.16s0,.13.26.13c-.26.26-.52.64-.26.77.26.65-.26,1.03,0,1.68,0,0-.39.26-.26.26.52.39.26.77.26,1.16v1.68c-.26,1.03,0,2.06-.26,3.1h.26c0,.13-.26.26-.26.26.26.39,0,.52,0,.77,0,.13.26.13.26.13-.26,1.55,0,2.84-.26,4.39,0,.64.26,1.55.26,2.32v.39c0,.13-.26,0-.26.13,0,.39.26.64.26,1.16-.26-.39-.39,0-.65-.39v.39c0,.13.39.13.65.13.26.39,0,.77,0,1.16,0,.26.26.52,0,.9,0,.13,0,.52-.13.52q.13,0,.13.13v.26h.26c-.52.39-.26.52,0,.9l-.26.26v3.22s-.26,0-.26.39c.26.52.26.9.26,1.55-.26.39,0,.77.52.9-.26,0-.26.39-.26.52.26,0,.26.26.39.26,0,.13,0,.52.26.52.13.39.77,0,1.16.39v.26h.9v-.26c0,.26.13.26.13.26q.39-.26.77-.26c.26,0,.39-.13.39-.39.26-.13.39-.39.39-.77.39.26.26-.13.39-.52h-.13c0-.39.13-.39.39-.52,0-.26-.26-.65-.26-.77,0,0,.26-.39.39-.39-.13,0,0-.39-.13-.39.52,0,.13-.26.13-.77,0,0,.39,0,.39-.13,0,0,0-.13-.39-.13h-.13c.13-.39-.26-.77.13-1.16l-.13-.13c0-1.16,0-2.32.13-3.61q.39,0,.39-.13h-.39q-.13-.26,0-.39c0-.13-.13-.13-.13-.13,0-.13.13-.39.52-.39,0-.13-.52,0-.52-.39v-1.68s-.26-.26,0-.39c0,0,.13-.13,0-.39,0,0,0-.13.13-.39-.13,0,0-.13-.13-.39,0-.13.13-.39.13-.64-.13-.65-.13-1.03-.13-1.42,0-.26,0-.65.13-1.16l-.39-.13c.26-.39,0-.77.39-1.03-.39,0,0-.39-.39-.52.77-.64-.13-1.55.39-2.19,0,0,.39,0,.39-.13-.39-.26-.52,0-.77-.26.26,0,.39-.13.39-.13-.39-.26-.39-.39,0-.65-.13-.26-.13-.52-.39-.64q.26,0,.26-.26c0-.13.13-.52-.26-.77.39,0,.39-.13.26-.39q.13,0,.13-.13c-.13-.26-.13-.39-.13-.77,0-.13.13-.13.13-.13-.13-.39-.39-.65-.13-1.03,0-.13-.26-.26-.26-.39.26,0,.39-.26.39-.39,0-.26-.13-.26-.13-.26,0-.9-.26-1.68.13-2.19,0-.26-.13-.39-.13-.65h.13c0-.26-.39-.26-.39-.26.26-.26.26-.39.26-.39,0-.65,0-1.16.13-1.68,0-.13-.13-.13-.13-.13-.26-.39,0-.39.13-.52h-.13v-.26s.13,0,.13-.13h-.13c0-.26.13-.26.13-.39h-.13v-.39c0-.26.13-.26.13-.26,0-.39-.39-.39,0-.52l-.13-.26c.13-.13,0-.52,0-.64l.13-.26c0-.39,0-.52-.13-.77,0-.13.13-.52.13-.64-.13-.13-.13-.9-.13-1.29,0-.13.52,0,.52-.13,0-.26-.52,0-.52-.39,0-.26.52-.26.52-.26,0-.13-.52-.13-.52-.39,0-.39,0-.52.13-1.03,0-.26-.13-.26-.13-.39-.26-.39,0-.77,0-1.42,0,0,0-.26.13-.26.39-.13-.13-.13-.39-.52.26-.13.39-.39.77-.39l-.13-.13c.13,0,.13-.26.26-.26,0-.13,0-.39-.13-.39h-.52c-.26-.13-.26-.52,0-.77.52-.39-.39-1.03.13-1.29h-.13c0-.13.13-.39.52-.39,0,0,.13,0,0-.13ZM39.53,36.28s.52.26,1.16.26c0,0-.39-.26,0-.26h.52c.26-.52-.52-.52-.52-.64-.39,0,0,.13-.39.13-.26-.13,0-.39.39-.39q0-.26-.39-.26c-.26,0,0,.26-.26.26-.13,0-.13-.26-.13-.26h-.39q-.13,0-.13-.13c-.13,0-.26-.26-.26-.13,0,.52.26.9.39,1.42ZM43.4,113.81c0-.26-.26-.26-.26-.26-.26.26-.52.26-.52.39,0,.39.26.52.52.39,0,0,.26,0,.26-.39v-.13ZM48.18,51.89h-.26c-.13-.39-.13-.65-.13-.65-.52,0-1.16-.13-1.29.26v.39c.77-.39.77.52,1.29.52.13,0,.52,0,.52-.26.13,0-.39-.13-.13-.26ZM52.43,61.69c-.39-.39-.77-.9-1.42-.52,0,0-.26,0-.26.13.26.52.9.39,1.29.52.13.26.65.26.65-.13.26,0-.26-.39-.26,0ZM51.79,57.31l-.26-.13v.13h.26Z" style="fill: #19180d;"/>
    <path d="M82.49,71.37q-.13.26-.39.64c0,.52.39-.13.39,0,.26.52-.13.52-.13.65,0,.26.39.26.39.39-.26.26-.39.52-.64.77.64.13.39.52.26,1.03,0,.26.39-.26.13.26,0,.52-.13.64-.39,1.16,0,.26.26.26.39.26-.13.77.26,1.42,0,2.45,0,0-.13,0-.13.26.39.13.13.39,0,.9-.26,0,0,.13,0,.13l.13-.13c.26.39-.52.39-.39.52.26.39.39,0,.64,0,0,.26-.26.39-.26.9-2.19.13-4.13.13-6.32.13,0-.13,0-.64-.13-.64-.26.52-.52.64-.9.64h-5.42c0,.26-.26,0-.39-.13,0,.13-.52.13-.52.13h-3.74c-.77,0-4.26-.13-5.03,0,0,0,0-.13-.13-.64q-.26.52-.39.52c-.26-.9-.26-1.42,0-2.32,0,0-.26,0-.26-.26,0-1.03,0-2.06.26-2.97,0-.39,0-.9.13-1.16.26-.26.39-.26.39-.52v-.39c-.13,0-.39.26-.39,0-.39-.13,0-.65-.13-.9,0,0,.13,0,.13-.13-.13-.9-.13-1.42-.13-2.32h1.29c.26,0,.26-.26.26-.26h.52c.13,0,.39.39.39.39.13,0,2.97-.39,3.1-.39s.26.39.52.39c.39,0,.9-.39,1.42-.13v-.26c.39.26.77,0,1.16,0,0,0,0,.26.26.26v-.26c1.42.26,6.45-.13,7.74,0-.13.26,0,.77.26.77.39-.52.52-.52.77-.77,0,.26.26.26.39.39.26-.39.9,0,1.16-.39.13.26.39,0,.39.26q.13-.26.39-.26c0,.26-.26.39,0,.39l.39-.39c0,.26.13.26.39.26v-.26c.39.26.9,0,1.29-.13.13,0,.13.13.39.13.13-.13.39,0,.52,0,0,.26-.13.39-.13.77l.13.26Z" style="fill: #19180d;"/>
    <path d="M118.73,94.07c.13.39-.26.77,0,.9,0,.65,0,1.03.13,1.42,0,.13-.39.39-.39.39,0,.26.26.65.26,1.03-.26-.39-.26,0-.39,0l.13.26h.39c-.39.13,0,.13,0,.39,0,0-.52-.26-.39.13,0,.26.39,0,.39.26v2.45s0,.39-.13.39h.13c.26.13,0,.13,0,.13.39.39-.13.77-.39,1.16,0,.13.39,0,.39.13v.64c0,.39-.13.77-.13,1.16-.26.9-.26,1.68-.65,2.45,0,.13.26.52.26.65-.26.39-.64.64-.64,1.03s-.13.77-.39,1.16c0,0,.26,0,0,.13h-.13c0,.39,0,.77-.26.77q.13.13,0,.13c-.52.39-.64.77-.9,1.16v.26c-.39,0-.39.13-.52.39v-.26h-.26c-.13.26,0,.52-.13.77-.26,0-.39.39-.65.52-.39.39-1.03.64-1.42,1.03-.26.13-.64.13-.77.39-.65,0-.77.9-1.55.64-.13,0-.52.26-.77.26-.13-.26-.39-.26-.52-.39-.26-.39-.26.13-.39.13.13.26.39,0,.39.26-.39,0,0,.39-.26.39,0-.26-.13-.26-.39-.39l-.13.13-.39-.13c-.13,0,0,.39,0,.52-.39.26-.13-.13-.39-.13-.13,0-.13.39-.13.39-2.06.26-4.26.39-6.06.26,0,0,0-.26-.26-.26-.39,0-.9.26-1.68.26h-2.45v-.26c-.52.26-1.16.39-1.68,0v.26h-1.29s0-.26-.26-.26v.26c-.9-.26-2.06.13-2.84-.26,0,0-.13.39-.39.26h-.9c-.26,0-.26-.26-.52-.26-.26.26-.77.26-1.16.26,0-.26.13-.52.13-.52-.13-.13-.13-.39-.13-.52h.13c-.13-.9-.13-1.68,0-2.45v-1.55c-.13-.77-.13-1.55,0-2.19,0,0,.26,0,.26-.26h-.26c-.13-.39.39-.13.39-.52l-.13-.26q0,.26-.26.26c-.13,0,0-.26-.13-.26.39-.13,0-.77.39-.9q-.26,0-.26-.26c0-.65-.13-1.29,0-2.06v-.39q0-.13-.13-.13c.39-1.29,0-2.45.13-4,0,0-.13,0-.13-.13.13-.65,0-1.16.13-1.94l-.13-.13q.13,0,.13-.26c0-.52-.13-.9-.13-1.55h.13c.26-.13.39-.39,0-.65h-.13s.13-.26.13-.39q-.13,0-.13-.26c.13-.39.13-.52.13-.9,0-.13,0-.26-.13-.26.13,0,.13-.13.13-.13-.13-1.55-.13-3.1-.13-4.51h.13c0-.39-.39-.39-.39-.65.26-.13.26-.39.26-.77v-2.97c-.26-1.55.13-2.97-.26-4.39,0-.13.26-.52,0-.77,0-.26.26-.52.26-.65-.26-.39.13-.64.13-1.03,0-.13-.39,0-.39-.13,0,0,.26,0,.26-.26,0-.13,0-.52.13-.9,0-.13-.39,0-.39-.13,0-.39.26-.77,0-1.16,0-.65-.13-1.16.26-1.68.13-.39-.26-.64-.39-.77,0-.26.39-.26.39-.39-.39-.26,0-.65,0-1.03h-.26c0-.52.39-.9.26-1.03,0-.26,0-.64-.39-.77l.39-.26c-.39-.9,0-1.68-.39-2.45v-.9c.13,0,0-.52,0-.77.13-.13,0-.39.13-.39.26-.13,0-.39,0-.39,0-.13.26-.13.26-.13,0-.26-.26-.26-.26-.26v-.39c-.13-.9,0-1.68-.13-2.45q.13,0,.13-.13v-.77c-.13-1.29,0-2.45-.13-3.74h.13c.26,0,.26-.26.26-.26-.26-.13-.39-.13-.39-.13,0-.77.39-1.68.13-2.45.26,0,.26-.26.26-.26-.39-.52-.39-1.42.13-1.81l-.26-.26s.13,0,.13-.13h-.26l.26-.26h-.26v-.52c-.39-.77,0-1.68-.13-2.45,0,0,.13-.26.39-.39h-.26c0-.26.39-.26,0-.39v-1.16s.26,0,.26.26c0-1.03-.39-1.94-.39-2.84,0-.26.39-.26.39-.39-.26-.39-.39-.77-.26-1.16,0-.13-.13-.26-.26-.39.13,0,.13-.13.13-.39v-.13c.13,0,.39,0,.39-.26l-.39-.13c.13,0,.39-.26.39-.39-.77-.39,0-1.03-.39-1.42.39,0,0-.52,0-.64h.13v-.39l.26.13v-.39c0-.13-.26-.13-.26-.13v-.64s.26,0,.26-.13h-.39c.13-.26.13-.39,0-.77h.13c0-.13,0-.52-.13-.77v-.39c.13-.77,0-1.68,0-2.45l.13.26c.26-.39-.39-1.03,0-1.42-.39-.39-.13-1.29.26-1.68l-.26-.13c.39-.39.64.13,1.03.13.13,0,.13.26.39.39.26-.13.26-.39.52-.52v.13h.13c.39,0,0-.13.26-.13v.13h.39l-.26.26c.26.13.39,0,.65-.26.13,0,.13.39.13.26q.26,0,.26-.26c.39,0,.52-.13.9-.13.13-.26.52,0,.9,0,0,0,0-.26.26-.26,0,0,0,.26.13.26,0,0,0-.26.26-.26l.13.39c.26,0,.26-.39.39-.13v.13h.39c.39-.39.9-.13,1.29-.13,0,0,0-.26.26-.26.13,0,.39.26.52.26.39,0,.64-.26.9,0h.39l.26.13c0-.39.13-.13.52-.13v-.26c.26,0,.26.26.26.26.39,0,.52-.26.9,0v-.26c.39,0,.39.26.52.39.26.26.39,0,.65-.13v.13s.13,0,.13-.13h-.13c.52-.39.77.13.9.13.26,0,.26-.13.26-.13,0,0,.13.13.13,0v-.26c.39,0,.77.26,1.16.39.13,0,.13-.13.13-.26,0,.13.39,0,.39.13h.26c.39.13-.26,0,0,.13l.13.26c.39-.26.65,0,1.03.13,0,0,0-.39.26-.39.39-.13.65.39,1.03.26.39-.26.52.39.9,0,.26.13.77,0,.9.39.26.13.39.13.65.64,0-.26.13-.52.13-.52.77,0,1.42.26,1.93.9h.13c0,.13.39.39.26.64h.52c.26.39.64.13.77.39.26,0-.13.13,0,.13.26.39.64.26.9.26.39.39.39.9.65,1.03.39.26.77.65,1.16.77v.64s-.26,0,0,.13c.13,0,0,.39.13.65q.26,0,.39-.26c0,.26-.13.39,0,.77l.39-.39c-.39.52,0,.77.13.77h.26c.13.13.39.77,0,.77.39.39.52.77.52,1.16,0,.26.26.26.26.26-.26.26-.26.39-.26.65q-.13,0-.13.13c.39,0,.52.39.52.77,0,0,.26,0,.26.26,0,.39-.26,1.03,0,1.68,0,.13.13.13,0,.52,0,0,.13,0,.13.26-.13.77.39,1.81-.13,2.58.39,0,.13.39.39.65-.26,0-.26.13-.26.13-.13,1.29.26,2.45,0,3.74-.13.26-.13.39-.13.39,0,.39,0,.64.13,1.03,0,.39,0,1.03-.13,1.29v.13s-.26,0-.26.26c.26.13.26.52.39.39-.13,1.16.39,2.19,0,3.35,0,0,.26.39,0,.39.26.39,0,.52.26.77-.26,0,0,.13-.26.13.26.39,0,.77,0,1.03-.13-.26-.13.13-.39.13l.39.39c.26,1.16.26,2.32-.13,3.35,0,.26.13.26.13.26,0,.13-.13.39-.39.52,0,.26.26.26.26.26,0,.77-.26,1.68-1.03,2.19q.26.26.26.39c-.39,1.03-1.29,1.93-2.32,2.32,0,.13,0,.39-.13.39-.65.13-1.29.39-1.68.77-.26.13,0,.52.39.77,0,0,0,.26-.26.26,1.16.64,1.93,1.16,2.71,1.93v.26c0,.13.64.13.9.65.13.39.52.77.77,1.42.39.52.52,1.42.77,2.19,0,.39-.26.77,0,1.42h-.26c.39,1.29.26,2.19.26,3.48,0,0,.13,0,.13.26,0,.13-.39.39-.13.77-.26,0,0,.13-.26.39.26,0,.26.39.26.52v1.94h-.26c0,.39.26.39.39.52,0,.26-.39,0-.39.26s.26.26.26.26v.77c-.26.13-.26.39,0,.65,0,.52-.26,1.42,0,2.06.13.13-.26.39,0,.52q0,.26.13.26c-.13.13,0,.39,0,.77,0,0-.13,0-.13.13ZM89.45,63.5s-.26,0-.26.13c0,0-.13,0-.13.26q0-.26-.26-.26c-.39.26-.39,1.16,0,1.29.26,0,.39-.13.65-.39,0-.26,0-.52.26-.52,0-.13,0-.39-.26-.52ZM94.1,93.3c0,.26.39.26.64.26,0-.26-.39-.26-.39-.39,0-.26.13,0,.39-.26h.13c-.13-.13-.52-.13-.77,0v.39ZM95.26,76.65q.13,0,.13-.13v-.26c0-.13-.13-.13-.13-.13-.39.13-.52.52,0,.52ZM96.81,92.52c-.52.39-1.03.52-1.55.52.13.13.39.13.52.13.39,0,.64-.26,1.03-.39v-.26ZM97.58,94.97c-.26,0-.26.39,0,.65q.26,0,.52-.26c.13-.13-.26-.39-.52-.39ZM101.32,59.63c-.26.26.13.26,0,.26-.26.13,0,.52,0,.77.13,0,0,.13.13.13-.13.26,0,.39-.13.39.39.26.13.9.13,1.29l-.13.26s.13,0,.13.13c0,0,0,.26-.13.26.13.13,0,.39.13.52-.13.39-.13,1.16.26,1.29.39.39.9.65,1.29.26.39.39.77,0,1.16-.26.39,0,.9-.39,1.29-.9,0,0,0-.13-.13-.13.13-.26.39-.39.64-.64l.13-.13q-.13,0-.13-.26c.65-.39,0-.9.39-1.68,0,0,.26,0,.26-.13-.26-.64,0-1.16,0-1.81.13-.64,0-1.29.13-1.81,0,0-.13,0-.13-.26-.26-.13.52-.77,0-.77.13-.13.13-.52.26-.64h-.26c.13-.65-.26-1.03.13-1.42-.13,0,0-.13-.13-.13,0-.77-.26-1.16.39-1.55,0-.13-.26,0-.26-.39-.13-.9,0-2.06-.13-3.22v-.52c-.26-.39-.26-.77-.13-1.16-.13-.52-.13-1.16-.26-1.68,0-.52-.26-.77-.26-1.16-.26-.77-1.03-1.29-1.68-1.68-.9-.39-2.45-.52-2.97.52,0,.26,0,.39-.26.77,0,.26.26.26.26.26v.39q0,.13-.26.13c.39.26.26.39.26.77q0,.13-.13.13c.13.13.13.39.13.39-.26.26,0,.39,0,.77,0,0,.13,0,.13.26,0,.39-.13.52-.52.52.39.52.52,1.16.39,1.55.13.13,0,.52,0,.77h-.26c0,.39.26.52.39,1.03-.13,0-.13.26-.13.39,0,.26.13.65-.26.77.26.26.26.64.26.64,0,.39-.26,1.03,0,1.42h-.26c.39.39,0,1.03.26,1.42,0,0,0,.13.13.13.26.9-.13,1.68-.13,2.32,0,.52.13,1.03,0,1.68v-.26ZM107.38,92.91h-.39c.13-.52-.39-.9,0-1.68q0,.26.13.39c0-.39,0-.77-.13-1.29-.26-.77.13-1.68,0-2.45q0-.26.13-.39c-.13-.26-.39-.39-.13-.65.13-.13-.26-.39,0-.52.13-.39-.26-.77,0-.9,0-.39.13-.64-.26-.77.26-.26.26-.39.26-.39,0-.26-.26-.26-.26-.26,0-.52.26-1.29,0-1.68-.39-.77-.39-1.55-.77-2.45,0-.39-.64-.77-1.03-.9-.39-.26-.77-.26-1.16-.39-.77-.26-1.29-.26-1.68,0-.26,0-.39.13-.65.52h.26l-.26.26c-.13.39.26.39.26.39,0,.13-.26.39-.26.52v1.29c0,.39.39,1.03-.13,1.42l.39.13c0,.39-.26.39-.39.39.13.13.39.52.39.9-.39.39,0,.65,0,.77,0,.39,0,1.16.13,1.55,0,.13-.13.39-.13.39,0,.13.13.39.13.77,0,0-.13,0-.13.13.13,0,0,.26.13.26-.39,1.03,0,2.06-.13,3.35-.26,0,.13.39.13.52-.13,0-.13.26-.39.26,0,0,0,.13.26.13l-.26.26c.13,0,.26.13.26.13.13,1.16,0,2.45,0,3.61,0,0,.13.52,0,.52.13,0,0,.26,0,.26.13,1.29,0,2.58,0,3.74,0,.26-.26.26-.39.26v.13c.39.26.39.77.39,1.16.13,0,.39.13.52.13.39.26.77,0,1.29,0,.26.26.64,0,.77,0,.65-.13,1.16-.65,1.93-.9.13-.13,0-.39,0-.52,0-.26.13-.26.39-.39.13-.77.39-1.93.39-2.84v-.77c-.26,0,0-.26,0-.26q0-.26.13-.52c0-.13-.39-.52,0-.9-.13,0,0-.26-.13-.26.13-.13.13-.39.13-.52,0-.39-.13-1.16-.13-1.55.39.26.39-.13.39-.13.13-.26,0-.26,0-.26ZM103.38,39.12c.13.13.39.39.77.39.39-.39.39-1.03-.26-1.16-.13,0-.13.39-.39.39q-.13.13-.13.39ZM112.67,54.72c-.26-.13-.39-.13-.77-.13h-.26v-.65h-.13c0,.39,0,.77.39,1.03.13,0,.39-.26.77,0v-.26ZM114.86,76.14c.39-.26.26-.77-.13-.77,0,0-.26.13-.26.39,0,0,0,.13.26.13h.13v.26Z" style="fill: #19180d;"/>
  </g>
</svg>